<svg xmlns="http://www.w3.org/2000/svg" viewBox="0 0 18.38 17.55"><g><g><path fill="currentColor" d="M16.84,16.42a1.11,1.11,0,0,1-1.09,1.13,1.12,1.12,0,0,1,0-2.23A1.13,1.13,0,0,1,16.84,16.42Z"/><path fill="currentColor" d="M10.26,16.42a1.09,1.09,0,0,1-1.08,1.13A1.11,1.11,0,0,1,8,16.43a1.13,1.13,0,0,1,1.11-1.11A1.11,1.11,0,0,1,10.26,16.42Z"/><path fill="currentColor" d="M6.61,11.21,2.72,2.7H18.35v7.68Zm-2-7.29,2.75,6,9.76-.69V3.92Z"/><polygon fill="currentColor" points="3.13 3.58 1.94 1.22 0 1.22 0 0 2.69 0 4.21 3.04 3.13 3.58"/><rect fill="currentColor" x="9.36" y="3.48" width="1.21" height="6.82" transform="translate(-1.7 3.62) rotate(-19)"/><rect fill="currentColor" x="13.27" y="3.64" width="1.22" height="5.95" transform="translate(-0.79 2.02) rotate(-8.08)"/><rect fill="currentColor" x="5.18" y="6.01" width="12.56" height="1.21"/><polygon fill="currentColor" points="18.38 14.56 5.87 14.56 3.72 10.2 14.89 9.41 14.98 10.63 5.61 11.29 6.63 13.34 18.38 13.34 18.38 14.56"/></g></g></svg>