<svg xmlns="http://www.w3.org/2000/svg" viewBox="0 0 13.87 17.58"><defs><style>.cls-1{fill:gray;}</style></defs><title>Akun tombol</title><g id="Layer_2" data-name="Layer 2"><g id="Layer_1-2" data-name="Layer 1"><path class="cls-1" d="M6.93,13.87a6.94,6.94,0,1,1,6.94-6.94A6.94,6.94,0,0,1,6.93,13.87Zm0-12.66a5.72,5.72,0,1,0,5.72,5.72A5.73,5.73,0,0,0,6.93,1.21Z"/><path class="cls-1" d="M1.62,17.58a5.7,5.7,0,0,1,5.31-3.74,5.72,5.72,0,0,1,5.32,3.74h1.28a6.92,6.92,0,0,0-6.6-4.95,6.94,6.94,0,0,0-6.6,4.95Z"/></g></g></svg>