<?xml version="1.0" encoding="utf-8"?>
<!-- Generator: Adobe Illustrator 16.0.0, SVG Export Plug-In . SVG Version: 6.00 Build 0)  -->
<!DOCTYPE svg PUBLIC "-//W3C//DTD SVG 1.1//EN" "http://www.w3.org/Graphics/SVG/1.1/DTD/svg11.dtd">
<svg version="1.1" id="Layer_1" xmlns="http://www.w3.org/2000/svg" xmlns:xlink="http://www.w3.org/1999/xlink" x="0px" y="0px"
	 width="50px" height="50px" viewBox="0 0 50 50" enable-background="new 0 0 50 50" xml:space="preserve">
<g>
	<path fill="#FF5000" d="M0.25,24.998c0,13.669,11.083,24.751,24.751,24.751c13.669,0,24.749-11.082,24.749-24.751
		c0-13.666-11.08-24.747-24.749-24.747C11.333,0.25,0.25,11.332,0.25,24.998"/>
	<g>
		<path fill="#FFFFFF" d="M17.427,22.11h-2.575v2.638v0.063v2.242h0.004c0,0.844,0.002,1.69-0.004,2.536
			c0,0.156,0.042,0.222,0.205,0.217c0.236-0.009,0.475-0.009,0.709,0c0.159,0.005,0.211-0.059,0.21-0.214
			c-0.008-0.603,0.002-1.203-0.008-1.804c-0.002-0.181,0.051-0.245,0.232-0.243c0.465,0.011,0.93,0.009,1.396,0.002
			c1.702-0.013,2.948-1.412,2.687-3.092C20.068,23.077,19.084,22.11,17.427,22.11z M17.726,26.384h-0.009
			c-0.042,0.005-0.08,0.011-0.123,0.011c-0.221,0.004-0.441,0-0.663,0c-0.244,0-0.485,0-0.732,0c-0.234,0-0.23-0.061-0.226-0.232
			c0.006-0.462-0.002-0.923,0-1.384c-0.002-0.461,0.006-0.819,0-1.279c-0.006-0.174,0-0.233,0.22-0.233c0.248,0,1.157-0.002,1.401,0
			c0.042,0,0.082,0.007,0.123,0.009c0.003,0.002,0.007,0.002,0.01,0.002c0.85,0.074,1.474,0.676,1.468,1.501
			C19.2,25.604,18.576,26.309,17.726,26.384z"/>
		<path fill="#FFFFFF" d="M28.813,22.265c-0.327-0.192-0.695-0.315-1.075-0.346h-0.283c-0.02,0-0.039,0-0.058,0
			c-0.02,0-0.038,0-0.061,0h-0.283c-0.38,0.031-0.746,0.154-1.075,0.346c-0.713,0.417-1.25,1.171-1.382,2.083
			c-0.26,1.801,0.984,3.371,2.691,3.386c0.463,0.006,1.725,0.009,2.187,0c0.058-0.004,0.1,0.006,0.135,0.02v-1.224
			c-0.033,0.01-0.077,0.018-0.132,0.013c-0.244-0.015-1.283-0.003-1.527-0.005c-0.222,0-0.441,0.002-0.66,0
			c-0.045,0-0.084-0.004-0.126-0.008h-0.01c-0.598-0.06-1.08-0.448-1.314-0.978h3.116h0.248h0.945
			c0.086-0.385,0.108-0.785,0.047-1.202C30.063,23.436,29.526,22.682,28.813,22.265z M25.725,24.418
			c0.151-0.708,0.707-1.266,1.431-1.336c0.004,0,0.008,0,0.01,0c0.042-0.004,0.081-0.008,0.126-0.01h0.107h0.107
			c0.04,0.002,0.081,0.006,0.124,0.01c0.002,0,0.007,0,0.01,0c0.723,0.07,1.28,0.627,1.428,1.336H25.725z"/>
		<path fill="#FFFFFF" d="M45.936,22.774c-0.522-0.529-1.231-0.825-1.994-0.827H43.93c-0.749,0-1.448,0.288-1.977,0.811
			c-0.531,0.527-0.824,1.234-0.826,1.994c-0.002,1.569,1.23,2.804,2.805,2.808h0.01c1.563,0,2.794-1.217,2.8-2.775
			C46.746,24.018,46.46,23.305,45.936,22.774z M45.588,24.739c-0.001,0.004,0,0.009,0,0.016c0,0.894-0.71,1.62-1.595,1.652
			c-0.021,0-0.033,0.004-0.052,0.004h-0.004h-0.003c-0.912,0-1.651-0.744-1.651-1.655v-0.017v-0.018c0-0.137,0.021-0.273,0.06-0.403
			c0.189-0.7,0.832-1.217,1.592-1.217h0.003h0.004c0.038,0,0.075,0.005,0.112,0.006c0.672,0.046,1.233,0.498,1.442,1.111
			c0.005,0.012,0.011,0.029,0.017,0.042c0,0.003,0,0.005,0,0.009c0.05,0.145,0.076,0.294,0.076,0.451
			C45.589,24.726,45.588,24.731,45.588,24.739z"/>
		<path fill="#FFFFFF" d="M24.791,23.265h0.097v-1.155h-0.683c-0.121,0-0.248-0.001-0.409-0.001c-0.864,0-1.73-0.091-2.364,0.546
			c-0.53,0.53-0.694,1.298-0.688,1.983c0.009,0.893,0,2.778,0,2.911l1.157-0.002c0-0.392-0.005-2.106-0.002-2.974
			c0-0.878,0.487-1.307,1.946-1.307h0.89C24.758,23.267,24.775,23.267,24.791,23.265z"/>
		<path fill="#FFFFFF" d="M14.272,22.109H13.12l-0.004,3.206c0,0.8-0.779,1.294-1.574,1.3c-0.736,0.004-1.504-0.477-1.504-1.283
			c0-0.89-0.006-3.104-0.006-3.187v-0.036H8.874v0.036v0.24v0.055v1.382h0.003c0,0.505,0,0.978-0.006,1.472
			c-0.005,0.402,0.098,0.768,0.288,1.116c0.754,1.393,2.407,1.608,3.567,1.137c0.992-0.4,1.552-1.461,1.552-2.338
			c0.002-0.715-0.002-1.488-0.006-2.077V22.109L14.272,22.109z"/>
		<path fill="#FFFFFF" d="M6.926,24.26c-0.091-0.002-0.186-0.002-0.276-0.002l0,0h-1.77H4.73c-0.223-0.001-0.433-0.202-0.488-0.4
			c-0.05-0.18,0.042-0.423,0.228-0.514c0.11-0.051,0.244-0.071,0.367-0.072c0.734-0.009,1.465-0.006,2.2-0.006h0.163h0.433h0.416
			h0.008v-1.156H4.752v0.005h-0.09c-0.403,0-0.741,0.152-1.009,0.456c-0.53,0.598-0.525,1.725,0.013,2.32
			c0.286,0.316,0.638,0.523,1.069,0.519c0.068-0.001,0.137,0,0.202-0.001h1.426c0.204,0.001,0.411,0.001,0.614,0.005
			c0.441,0.002,0.665,0.29,0.509,0.682c-0.098,0.242-0.299,0.291-0.529,0.291c-0.777,0-1.555,0-2.332,0
			c-0.239,0-0.478-0.008-0.718,0.006H3.903H3.704v1.152h0.088c0.029,0.007,0.054,0.009,0.076,0.009c1.09,0,2.182,0.008,3.274-0.009
			c0.178,0,0.369-0.063,0.531-0.141c0.67-0.338,0.975-1.134,0.779-1.971C8.282,24.716,7.667,24.264,6.926,24.26z"/>
		<path fill="#FFFFFF" d="M34.028,24.26c-0.091-0.002-0.184-0.002-0.275-0.002l0,0H31.98h-0.149c-0.222-0.001-0.433-0.202-0.486-0.4
			c-0.052-0.18,0.042-0.423,0.229-0.514c0.11-0.051,0.244-0.071,0.366-0.072c0.734-0.009,1.467-0.006,2.197-0.006h0.165h0.432h0.417
			h0.008v-1.156h-3.304v0.005h-0.09c-0.403,0-0.742,0.152-1.01,0.456c-0.528,0.598-0.524,1.725,0.014,2.32
			c0.284,0.316,0.637,0.523,1.068,0.519c0.067-0.001,0.138,0,0.205-0.001h1.423c0.203,0.001,0.408,0.001,0.614,0.005
			c0.443,0.002,0.665,0.29,0.509,0.682c-0.099,0.242-0.298,0.291-0.528,0.291c-0.778,0-1.555,0-2.333,0
			c-0.239,0-0.478-0.008-0.717,0.006h-0.004h-0.202v1.152h0.091c0.031,0.007,0.054,0.009,0.076,0.009
			c1.092,0,2.181,0.008,3.274-0.009c0.18,0,0.37-0.063,0.533-0.141c0.667-0.338,0.975-1.134,0.775-1.971
			C35.384,24.716,34.769,24.264,34.028,24.26z"/>
		<path fill="#FFFFFF" d="M39.282,24.26c-0.095-0.002-0.187-0.002-0.279-0.002l0,0h-1.771h-0.151
			c-0.221-0.001-0.432-0.202-0.486-0.4c-0.052-0.18,0.046-0.423,0.23-0.514c0.108-0.051,0.243-0.071,0.364-0.072
			c0.736-0.009,1.468-0.006,2.199-0.006h0.165h0.432H40.4h0.01v-1.156h-3.303v0.005h-0.093c-0.402,0-0.738,0.152-1.01,0.456
			c-0.527,0.598-0.521,1.725,0.014,2.32c0.285,0.316,0.639,0.523,1.069,0.519c0.067-0.001,0.138,0,0.204-0.001h1.423
			c0.205,0.001,0.41,0.001,0.615,0.005c0.442,0.002,0.665,0.29,0.508,0.682c-0.098,0.242-0.296,0.291-0.527,0.291
			c-0.776,0-1.554,0-2.331,0c-0.24,0-0.48-0.008-0.719,0.006h-0.002h-0.201v1.152h0.087c0.031,0.007,0.056,0.009,0.077,0.009
			c1.093,0,2.185,0.008,3.275-0.009c0.179,0,0.368-0.063,0.533-0.141c0.666-0.338,0.974-1.134,0.776-1.971
			C40.636,24.716,40.021,24.264,39.282,24.26z"/>
	</g>
</g>
</svg>
