<?xml version="1.0" encoding="utf-8"?>
<!-- Generator: Adobe Illustrator 16.0.0, SVG Export Plug-In . SVG Version: 6.00 Build 0)  -->
<!DOCTYPE svg PUBLIC "-//W3C//DTD SVG 1.1//EN" "http://www.w3.org/Graphics/SVG/1.1/DTD/svg11.dtd">
<svg version="1.1" id="Layer_1" xmlns="http://www.w3.org/2000/svg" xmlns:xlink="http://www.w3.org/1999/xlink" x="0px" y="0px"
	 width="100px" height="100px" viewBox="0 0 100 100" enable-background="new 0 0 100 100" xml:space="preserve">
<g>
	<g>
		<path fill="#161616" d="M50,64.596c-8.062,0-14.596-6.533-14.596-14.596c0-8.062,6.534-14.596,14.596-14.596
			c8.061,0,14.596,6.534,14.596,14.596C64.596,58.063,58.061,64.596,50,64.596z M50,40.525c-5.232,0-9.475,4.242-9.475,9.475
			c0,5.232,4.242,9.475,9.475,9.475c5.232,0,9.475-4.242,9.475-9.475C59.475,44.767,55.232,40.525,50,40.525z"/>
		<path fill="#161616" d="M78.252,61.719c-0.139,3.025-0.618,5.092-1.32,6.899c-1.477,3.817-4.494,6.837-8.313,8.313
			c-1.809,0.701-3.874,1.183-6.898,1.319c-3.031,0.14-4,0.172-11.719,0.172c-7.72,0-8.688-0.032-11.72-0.172
			c-3.025-0.138-5.092-0.618-6.899-1.319c-1.897-0.715-3.614-1.832-5.034-3.279c-1.445-1.42-2.564-3.137-3.278-5.034
			c-0.702-1.808-1.184-3.874-1.321-6.899c-0.14-3.031-0.172-4-0.172-11.719s0.032-8.688,0.172-11.719
			c0.138-3.025,0.617-5.092,1.319-6.899c0.715-1.897,1.833-3.615,3.28-5.034c1.419-1.447,3.137-2.565,5.034-3.279
			c1.808-0.702,3.874-1.183,6.899-1.32c3.031-0.139,4-0.172,11.719-0.172c7.72,0,8.688,0.033,11.72,0.172
			c3.024,0.138,5.092,0.618,6.898,1.319c1.896,0.715,3.615,1.833,5.035,3.28c1.445,1.42,2.563,3.137,3.277,5.034
			c0.703,1.808,1.184,3.874,1.321,6.899c0.14,3.031,0.171,4,0.171,11.719S78.393,58.688,78.252,61.719z M72.157,33.237
			c-0.455-1.235-1.183-2.352-2.125-3.27c-0.919-0.943-2.034-1.67-3.271-2.125c-1-0.39-2.506-0.853-5.277-0.979
			C58.488,26.728,57.59,26.697,50,26.697s-8.488,0.029-11.485,0.166c-2.771,0.127-4.277,0.59-5.277,0.979
			c-1.235,0.455-2.353,1.182-3.27,2.125c-0.943,0.918-1.67,2.034-2.127,3.27c-0.388,1.001-0.852,2.506-0.978,5.277
			C26.726,41.511,26.697,42.41,26.697,50c0,7.589,0.029,8.486,0.166,11.486c0.126,2.771,0.59,4.274,0.978,5.277
			c0.457,1.233,1.183,2.351,2.127,3.268c0.917,0.943,2.033,1.671,3.268,2.127c1.002,0.389,2.508,0.852,5.279,0.979
			c2.997,0.137,3.895,0.165,11.484,0.165c7.591,0,8.489-0.028,11.485-0.165c2.771-0.127,4.277-0.59,5.277-0.979
			c2.479-0.957,4.438-2.916,5.396-5.395c0.39-1.003,0.853-2.508,0.979-5.277c0.138-3,0.166-3.897,0.166-11.486
			c0-7.591-0.028-8.489-0.166-11.486C73.012,35.743,72.547,34.238,72.157,33.237z"/>
		<circle fill="#161616" cx="65.172" cy="34.827" r="3.411"/>
	</g>
	<path fill="#161616" d="M50,0.5C22.666,0.5,0.5,22.666,0.5,50S22.666,99.5,50,99.5S99.5,77.334,99.5,50S77.334,0.5,50,0.5z
		 M94.5,50c0,24.576-19.923,44.5-44.5,44.5C25.424,94.5,5.5,74.576,5.5,50S25.424,5.5,50,5.5C74.577,5.5,94.5,25.424,94.5,50z"/>
</g>
</svg>
