<?xml version="1.0" encoding="utf-8"?>
<!-- Generator: Adobe Illustrator 16.0.0, SVG Export Plug-In . SVG Version: 6.00 Build 0)  -->
<!DOCTYPE svg PUBLIC "-//W3C//DTD SVG 1.1//EN" "http://www.w3.org/Graphics/SVG/1.1/DTD/svg11.dtd">
<svg version="1.1" id="Layer_1" xmlns="http://www.w3.org/2000/svg" xmlns:xlink="http://www.w3.org/1999/xlink" x="0px" y="0px"
	 width="16px" height="16px" viewBox="0 0 16 16" enable-background="new 0 0 16 16" xml:space="preserve">
<g>
	<path fill="currentColor" d="M15.947,3.993c-0.004-0.967-0.461-1.417-1.441-1.417c-3.057-0.002-6.117-0.03-9.174,0.02
		C4.6,2.608,4.198,2.405,3.999,1.718C3.922,1.455,3.77,1.215,3.65,0.963c-0.187-0.389-0.499-0.587-0.93-0.587
		c-0.611,0-1.224-0.013-1.833,0.018C0.346,0.42,0.033,0.784,0.047,1.302C0.059,1.788,0.365,2.099,0.903,2.14
		C1.197,2.164,1.5,2.177,1.791,2.141c0.379-0.048,0.557,0.103,0.707,0.443C3.336,4.499,4.192,6.408,5.06,8.31
		c0.175,0.38,0.261,0.594-0.262,0.796C4.08,9.383,3.634,9.963,3.645,10.781c0.01,0.701,0.532,1.334,1.268,1.595
		c0.301,0.106,0.609,0.147,0.929,0.146c1.464-0.006,2.928-0.002,4.393-0.004c1.537,0,3.076,0,4.615,0
		c0.414,0,0.682-0.188,0.695-0.618s-0.24-0.638-0.656-0.659c-0.166-0.008-0.334-0.004-0.5-0.004c-2.762,0-5.523-0.001-8.286,0.001
		c-0.26,0.001-0.519-0.005-0.767-0.095c-0.183-0.063-0.336-0.182-0.37-0.379c-0.036-0.213,0.118-0.344,0.278-0.442
		c0.274-0.167,0.578-0.23,0.896-0.263c2.82-0.28,5.64-0.568,8.46-0.858c0.953-0.099,1.346-0.531,1.349-1.481
		C15.955,6.476,15.954,5.234,15.947,3.993z M5.353,4.739c-0.32-0.901-0.366-0.883,0.606-0.886c0.129,0,0.259,0,0.388,0
		c1.209,0,1.192,0.007,1.619,1.169c0.159,0.435,0.124,0.609-0.381,0.557C7.273,5.547,6.947,5.531,6.643,5.583
		C5.931,5.704,5.588,5.396,5.353,4.739z M8.132,8.557C8.115,8.559,8.095,8.562,8.078,8.564C7.132,8.68,7.134,8.68,6.746,7.805
		c-0.14-0.32-0.268-0.65-0.436-0.957C6.093,6.45,6.262,6.375,6.628,6.4c0.239,0.017,0.481,0.002,0.72,0.002
		c1.115,0.002,1.115,0.002,1.479,1.044C9.168,8.423,9.168,8.423,8.132,8.557z M8.939,5.249C8.358,3.855,8.352,3.858,9.818,3.858
		h0.109c0.057,0,0.112,0,0.168,0c1.332,0,1.377,0.051,1.414,1.391c0.007,0.252-0.078,0.327-0.309,0.324
		c-0.609-0.006-1.219-0.012-1.826,0.001C9.13,5.579,9.032,5.468,8.939,5.249z M11.211,8.252c-1.17,0.1-1.17,0.1-1.534-0.927
		c-0.33-0.923-0.33-0.923,0.626-0.923h0.221c1.126,0,1.126,0,1.294,1.096C11.921,8.179,11.912,8.193,11.211,8.252z M12.392,5.417
		c-0.08-0.452-0.144-0.909-0.188-1.368c-0.021-0.223,0.18-0.191,0.318-0.193c0.314-0.005,0.628-0.002,0.94-0.002
		c1.183,0.002,1.159,0.002,1.188,1.185c0.01,0.456-0.141,0.576-0.563,0.544c-0.441-0.033-0.887-0.007-1.329-0.008
		C12.613,5.574,12.426,5.606,12.392,5.417z M14.641,7.657c-0.025,0.182-0.086,0.259-0.266,0.273
		c-0.424,0.032-0.848,0.065-1.268,0.125c-0.296,0.042-0.404-0.087-0.421-0.354c-0.006-0.092-0.024-0.183-0.034-0.275
		c-0.115-1.021-0.115-1.021,0.931-1.021C14.721,6.403,14.805,6.511,14.641,7.657z"/>
	<path fill="currentColor" d="M12.99,13.066c-0.705,0.003-1.262,0.563-1.266,1.271c-0.006,0.74,0.561,1.303,1.3,1.289
		c0.7-0.01,1.249-0.582,1.243-1.295C14.264,13.639,13.682,13.064,12.99,13.066z"/>
	<path fill="currentColor" d="M5.937,13.064c-0.691,0.005-1.271,0.586-1.274,1.275c-0.003,0.725,0.592,1.309,1.309,1.283
		c0.716-0.022,1.246-0.575,1.237-1.291C7.199,13.624,6.631,13.059,5.937,13.064z"/>
</g>
</svg>