<?xml version="1.0" encoding="utf-8"?>
<!-- Generator: Adobe Illustrator 16.0.0, SVG Export Plug-In . SVG Version: 6.00 Build 0)  -->
<!DOCTYPE svg PUBLIC "-//W3C//DTD SVG 1.1//EN" "http://www.w3.org/Graphics/SVG/1.1/DTD/svg11.dtd">
<svg version="1.1" id="Layer_1" xmlns="http://www.w3.org/2000/svg" xmlns:xlink="http://www.w3.org/1999/xlink" x="0px" y="0px"
	 width="100px" height="100px" viewBox="0 0 100 100" enable-background="new 0 0 100 100" xml:space="preserve">
<g>
	<path fill="#161616" d="M72.085,38.672c0.021,0.49,0.033,0.985,0.033,1.479c0,15.056-11.457,32.412-32.418,32.412
		c-6.433,0-12.422-1.881-17.464-5.117c0.893,0.105,1.798,0.16,2.719,0.16c5.339,0,10.25-1.822,14.149-4.875
		c-4.984-0.094-9.194-3.385-10.643-7.914c0.693,0.133,1.409,0.203,2.142,0.203c1.038,0,2.047-0.133,3.003-0.395
		c-5.213-1.047-9.139-5.65-9.139-11.172c0-0.047,0-0.098,0.002-0.145c1.535,0.853,3.291,1.367,5.158,1.426
		c-3.055-2.041-5.066-5.53-5.066-9.483c0-2.091,0.561-4.046,1.54-5.728c5.618,6.893,14.016,11.426,23.482,11.904
		c-0.194-0.833-0.294-1.702-0.294-2.598c0-6.289,5.102-11.395,11.393-11.395c3.277,0,6.235,1.387,8.316,3.599
		c2.598-0.511,5.029-1.457,7.236-2.766c-0.855,2.664-2.656,4.892-5.018,6.306c2.309-0.276,4.51-0.885,6.545-1.792
		C76.244,35.062,74.313,37.071,72.085,38.672z"/>
	<path fill="#161616" d="M50,0.5C22.666,0.5,0.5,22.666,0.5,50S22.666,99.5,50,99.5S99.5,77.334,99.5,50S77.334,0.5,50,0.5z
		 M94.5,50c0,24.576-19.923,44.5-44.5,44.5C25.424,94.5,5.5,74.576,5.5,50S25.424,5.5,50,5.5C74.577,5.5,94.5,25.424,94.5,50z"/>
</g>
</svg>
