<?xml version="1.0" encoding="utf-8"?>
<!-- Generator: Adobe Illustrator 16.0.0, SVG Export Plug-In . SVG Version: 6.00 Build 0)  -->
<!DOCTYPE svg PUBLIC "-//W3C//DTD SVG 1.1//EN" "http://www.w3.org/Graphics/SVG/1.1/DTD/svg11.dtd">
<svg version="1.1" id="Capa_1" xmlns="http://www.w3.org/2000/svg" xmlns:xlink="http://www.w3.org/1999/xlink" x="0px" y="0px"
	 width="512px" height="512px" viewBox="0 0 512 512" enable-background="new 0 0 512 512" xml:space="preserve">
<path fill="#FFFFFF" d="M342.022,333.107c54.252-30.396,91.379-87.712,91.379-154.141c0-97.845-79.622-177.468-177.41-177.468
	c-97.827,0-177.393,79.623-177.393,177.468c0,66.427,37.165,123.743,91.361,154.141c-54.197,30.397-91.361,87.751-91.361,154.18
	c0,12.853,10.378,23.213,23.195,23.213c12.816,0,23.232-10.36,23.232-23.213c0-72.213,58.752-130.928,130.965-130.928
	c72.191,0,130.981,58.715,130.981,130.928c0,12.853,10.36,23.213,23.177,23.213s23.252-10.36,23.252-23.213
	C433.401,420.858,396.274,363.506,342.022,333.107 M125.026,178.968c0-72.212,58.752-130.965,130.965-130.965
	c72.191,0,130.981,58.753,130.981,130.965c0,72.211-58.79,130.927-130.981,130.927C183.779,309.895,125.026,251.179,125.026,178.968
	"/>
</svg>
