<?xml version="1.0" encoding="iso-8859-1"?>
<!-- Generator: Adobe Illustrator 16.0.0, SVG Export Plug-In . SVG Version: 6.00 Build 0)  -->
<!DOCTYPE svg PUBLIC "-//W3C//DTD SVG 1.1//EN" "http://www.w3.org/Graphics/SVG/1.1/DTD/svg11.dtd">
<svg version="1.1" id="Layer_1" xmlns="http://www.w3.org/2000/svg" xmlns:xlink="http://www.w3.org/1999/xlink" x="0px" y="0px"
	 width="512px" height="92.92px" viewBox="0 0 512 92.92" style="enable-background:new 0 0 512 92.92;" xml:space="preserve">
<g>
	<path style="fill-rule:evenodd;clip-rule:evenodd;fill:#151515;" d="M200.794,29.974c-2.524-16.129-14.042-27.445-33.44-27.445
		h-30.146v30.885v0.756v26.236h0.045c0,9.881,0.032,19.791-0.045,29.692c0,1.825,0.516,2.588,2.414,2.548
		c2.758-0.128,5.537-0.128,8.284,0c1.875,0.04,2.478-0.694,2.457-2.518c-0.087-7.057,0.029-14.092-0.087-21.131
		c-0.019-2.087,0.59-2.854,2.729-2.813c5.435,0.094,10.876,0.076,16.32,0.012C189.269,66.03,203.849,49.656,200.794,29.974
		 M170.865,52.572h-0.117c-0.483,0.045-0.944,0.095-1.449,0.095c-2.581,0.053-5.159,0-7.747,0c-2.866,0-5.696,0.02-8.57,0.02
		c-2.768,0-2.715-0.7-2.662-2.733c0.082-5.393-0.021-10.795,0.021-16.196c-0.042-5.397,0.062-9.584-0.021-14.973
		c-0.053-2.035,0-2.718,2.58-2.718c2.903,0,13.549-0.033,16.399,0c0.495,0,0.965,0.072,1.438,0.094
		c0.042,0.012,0.093,0.012,0.127,0.012c9.952,0.88,17.25,7.906,17.187,17.585C188.116,43.429,180.817,51.692,170.865,52.572"/>
	<path style="fill:#151515;" d="M305.21,42.798h11.063c1.017-4.488,1.28-9.187,0.566-14.072
		c-1.555-10.667-7.843-19.496-16.183-24.375c-3.848-2.244-8.149-3.691-12.596-4.056h-3.311c-0.222-0.015-0.444-0.015-0.672-0.022
		c-0.223,0.008-0.443,0.008-0.682,0.022h-3.306c-4.447,0.364-8.746,1.812-12.597,4.056c-8.346,4.879-14.628,13.708-16.182,24.375
		c-3.042,21.089,11.515,39.454,31.486,39.641c5.431,0.052,20.196,0.095,25.612-0.02c0.667-0.021,1.164,0.071,1.57,0.231V54.24
		c-0.385,0.146-0.888,0.221-1.539,0.157c-2.855-0.178-15.019-0.033-17.875-0.062c-2.601,0-5.166,0.05-7.757,0
		c-0.498,0-0.968-0.043-1.449-0.096h-0.117c-6.985-0.66-12.645-5.222-15.394-11.442h36.493H305.21z M264.506,29.553
		c1.762-8.296,8.266-14.818,16.737-15.625c0.042,0,0.086,0,0.117-0.011c0.481-0.052,0.951-0.084,1.449-0.116h1.269h1.269
		c0.492,0.032,0.963,0.064,1.445,0.116c0.042,0.011,0.073,0.011,0.115,0.011c8.472,0.807,14.998,7.329,16.728,15.625H264.506z"/>
	<path style="fill:#151515;" d="M501.086,10.319c-6.141-6.198-14.433-9.661-23.359-9.679h-0.147c-8.751,0-16.955,3.363-23.126,9.489
		c-6.209,6.176-9.646,14.451-9.667,23.336c-0.032,18.373,14.39,32.814,32.823,32.878h0.117c18.303,0,32.697-14.253,32.772-32.501
		C510.562,24.876,507.209,16.527,501.086,10.319 M497.002,33.486c0,10.466-8.313,18.962-18.688,19.327
		c-0.202,0-0.364,0.031-0.577,0.031h-0.041h-0.043c-10.677,0-19.34-8.672-19.34-19.358v-0.189v-0.188
		c0-1.597,0.253-3.188,0.694-4.698c2.225-8.201,9.734-14.265,18.646-14.265h0.031h0.053c0.444,0,0.863,0.055,1.302,0.066
		c7.869,0.554,14.433,5.839,16.896,13.004c0.054,0.168,0.131,0.346,0.19,0.503c0,0.042,0.011,0.07,0.011,0.106
		c0.564,1.687,0.866,3.438,0.866,5.283c0,0.053-0.01,0.127-0.01,0.199C496.992,33.362,497.002,33.425,497.002,33.486"/>
	<path style="fill-rule:evenodd;clip-rule:evenodd;fill:#151515;" d="M254.669,2.527h-7.992c-1.405,0-2.896-0.012-4.781-0.012
		c-10.112,0-20.251-1.058-27.688,6.41c-6.198,6.198-8.118,15.184-8.033,23.207c0.084,10.435,0,32.542,0,34.075l13.528-0.011
		c0-4.595-0.053-24.646-0.019-34.81c0-10.298,5.703-15.301,22.777-15.301h10.436c0.26,0,0.471,0,0.64-0.021h1.132V2.527z"/>
	<path style="fill:#151515;" d="M130.436,14.493V2.528h-13.498l-0.051,37.521c0,9.388-9.127,15.154-18.419,15.229
		c-8.617,0.053-17.597-5.589-17.597-15.017c0-10.417-0.082-36.339-0.082-37.307V2.528H67.267v0.427v2.813v0.64V22.59h0.035
		c0,5.904,0,11.442-0.061,17.231c-0.066,4.697,1.132,8.975,3.353,13.044c8.832,16.311,28.182,18.837,41.762,13.331
		c11.597-4.7,18.176-17.124,18.176-27.395C130.531,30.427,130.478,21.384,130.436,14.493"/>
	<path style="fill:#151515;" d="M62.288,41.456c-1.991-8.408-9.199-13.705-17.861-13.749c-1.068-0.021-2.163-0.021-3.239-0.021
		v-0.011H20.465h-1.757c-2.606-0.011-5.061-2.352-5.713-4.676c-0.587-2.108,0.505-4.972,2.687-6.031
		c1.28-0.597,2.85-0.816,4.289-0.829c8.58-0.104,17.147-0.072,25.725-0.072h1.919h5.067h4.854h0.105V2.527H18.973V2.6h-1.057
		c-4.709,0-8.673,1.774-11.801,5.329c-6.208,6.994-6.148,20.198,0.15,27.171c3.343,3.693,7.457,6.127,12.512,6.082
		c0.805-0.01,1.603,0,2.396-0.01h16.655c2.394,0.01,4.805,0.01,7.195,0.055c5.172,0.029,7.782,3.387,5.944,7.99
		c-1.142,2.843-3.49,3.398-6.197,3.398c-9.102,0-18.182,0.011-27.286,0.011c-2.811,0-5.601-0.084-8.401,0.061H9.042H6.691v13.511
		h1.04c0.354,0.062,0.629,0.083,0.88,0.083c12.774,0,25.545,0.073,38.343-0.083c2.078-0.013,4.321-0.767,6.219-1.677
		C61.005,60.596,64.596,51.264,62.288,41.456"/>
	<path style="fill:#151515;" d="M379.532,41.456c-1.982-8.408-9.207-13.705-17.848-13.749c-1.074-0.021-2.152-0.021-3.23-0.021
		v-0.011h-20.747h-1.751c-2.606-0.011-5.06-2.352-5.717-4.676c-0.587-2.108,0.521-4.972,2.698-6.031
		c1.289-0.597,2.85-0.816,4.289-0.829c8.577-0.104,17.153-0.072,25.717-0.072h1.925h5.061h4.864h0.106V2.527h-38.679V2.6h-1.047
		c-4.723,0-8.672,1.774-11.814,5.329c-6.186,6.994-6.135,20.198,0.169,27.171c3.338,3.693,7.456,6.127,12.503,6.082
		c0.808-0.01,1.606,0,2.41-0.01h16.633c2.401,0.01,4.807,0.01,7.219,0.055c5.171,0.029,7.779,3.387,5.934,7.99
		c-1.143,2.843-3.48,3.398-6.188,3.398c-9.102,0-18.203,0.011-27.298,0.011c-2.805,0-5.611-0.084-8.403,0.061h-0.037h-2.375v13.511
		h1.063c0.354,0.062,0.629,0.083,0.889,0.083c12.776,0,25.536,0.073,38.323-0.083c2.089-0.013,4.331-0.767,6.239-1.677
		C378.264,60.596,381.864,51.264,379.532,41.456"/>
	<path style="fill:#151515;" d="M441.021,41.456c-1.983-8.408-9.197-13.705-17.858-13.749c-1.069-0.021-2.159-0.021-3.242-0.021
		v-0.011h-20.725h-1.772c-2.586-0.011-5.05-2.352-5.7-4.676c-0.608-2.108,0.523-4.972,2.691-6.031
		c1.27-0.597,2.844-0.816,4.278-0.829c8.594-0.104,17.17-0.072,25.738-0.072h1.92h5.055h4.866h0.105V2.527h-38.656V2.6h-1.07
		c-4.722,0-8.663,1.774-11.814,5.329c-6.191,6.994-6.118,20.198,0.148,27.171c3.347,3.693,7.474,6.127,12.523,6.082
		c0.799-0.01,1.607,0,2.4-0.01h16.643c2.396,0.01,4.807,0.01,7.199,0.055c5.181,0.029,7.782,3.387,5.954,7.99
		c-1.132,2.843-3.479,3.398-6.183,3.398c-9.107,0-18.208,0.011-27.293,0.011c-2.809,0-5.622-0.084-8.41,0.061h-0.031h-2.363v13.511
		h1.031c0.359,0.062,0.63,0.083,0.899,0.083c12.776,0,25.553,0.073,38.345-0.083c2.063-0.013,4.301-0.767,6.22-1.677
		C439.729,60.596,443.326,51.264,441.021,41.456"/>
</g>
</svg>
