<?xml version="1.0" encoding="utf-8"?>
<!-- Generator: Adobe Illustrator 16.0.0, SVG Export Plug-In . SVG Version: 6.00 Build 0)  -->
<!DOCTYPE svg PUBLIC "-//W3C//DTD SVG 1.1//EN" "http://www.w3.org/Graphics/SVG/1.1/DTD/svg11.dtd">
<svg version="1.1" id="Layer_1" xmlns="http://www.w3.org/2000/svg" xmlns:xlink="http://www.w3.org/1999/xlink" x="0px" y="0px"
	 width="100px" height="100px" viewBox="0 0 100 100" enable-background="new 0 0 100 100" xml:space="preserve">
<g>
	<path fill="#161616" d="M80.93,50.051c0,0,0,10.039-1.272,14.878c-0.714,2.65-2.804,4.738-5.452,5.451
		C69.363,71.656,50,71.656,50,71.656s-19.313,0-24.204-1.326c-2.649-0.713-4.737-2.803-5.452-5.451C19.07,60.09,19.07,50,19.07,50
		s0-10.039,1.273-14.879c0.713-2.65,2.854-4.791,5.452-5.504C30.637,28.344,50,28.344,50,28.344s19.363,0,24.204,1.324
		c2.649,0.713,4.737,2.803,5.452,5.453C80.98,39.961,80.93,50.051,80.93,50.051z M43.834,59.273L59.938,50l-16.104-9.273V59.273z"/>
	<path fill="#161616" d="M50,0.5C22.666,0.5,0.5,22.666,0.5,50S22.666,99.5,50,99.5S99.5,77.334,99.5,50S77.334,0.5,50,0.5z
		 M94.5,50c0,24.576-19.923,44.5-44.5,44.5C25.424,94.5,5.5,74.576,5.5,50S25.424,5.5,50,5.5C74.577,5.5,94.5,25.424,94.5,50z"/>
</g>
</svg>
