<?xml version="1.0" encoding="utf-8"?>
<!-- Generator: Adobe Illustrator 16.0.0, SVG Export Plug-In . SVG Version: 6.00 Build 0)  -->
<!DOCTYPE svg PUBLIC "-//W3C//DTD SVG 1.1//EN" "http://www.w3.org/Graphics/SVG/1.1/DTD/svg11.dtd">
<svg version="1.1" id="Layer_1" xmlns="http://www.w3.org/2000/svg" xmlns:xlink="http://www.w3.org/1999/xlink" x="0px" y="0px"
	 width="100px" height="100px" viewBox="0 0 100 100" enable-background="new 0 0 100 100" xml:space="preserve">
<g>
	<path fill="#161616" d="M62.309,50.022h-8.054c0,12.867,0,28.705,0,28.705H42.322c0,0,0-15.685,0-28.705h-5.674V39.878h5.674
		v-6.562c0-4.7,2.233-12.043,12.043-12.043l8.842,0.033v9.849c0,0-5.374,0-6.417,0c-1.046,0-2.531,0.521-2.531,2.763v5.962h9.093
		L62.309,50.022z"/>
	<path fill="#161616" d="M50,0.5C22.666,0.5,0.5,22.666,0.5,50S22.666,99.5,50,99.5S99.5,77.334,99.5,50S77.334,0.5,50,0.5z
		 M94.5,50c0,24.576-19.923,44.5-44.5,44.5C25.424,94.5,5.5,74.576,5.5,50S25.424,5.5,50,5.5C74.577,5.5,94.5,25.424,94.5,50z"/>
</g>
</svg>
